<svg xmlns="http://www.w3.org/2000/svg" width="737.399" height="208.521" viewBox="0 0 691.31162 195.48875"><defs><clipPath id="a"><path d="M0 288h720V0H0v288z"/></clipPath></defs><g clip-path="url(#a)" transform="matrix(1.25 0 0 -1.25 -104.345 277.744)"><path d="M97.26 209.867l-.023-128.923c0-4.18.248-5.672-2.714-7.51-2.899-1.797-5.869-2.092-10.64-2.905 0 0-.05-.01-.09-.02-.478-.117-.39-1.916.09-1.916h104.291c43.99 0 62.491 17.456 62.491 44.687 0 20.127-9.374 32.437-27.936 37.06a.303.303 0 0 0 0 .594c11.826 3.69 22.701 12.249 22.701 33.21 0 28.42-19.2 38.05-61.09 38.05H83.918c-.48 0-.579-1.8-.1-1.917.04-.01.09-.02.09-.02 4.771-.813 7.742-1.108 10.64-2.907 2.962-1.836 2.712-3.303 2.712-7.483m48.937-108.235v30.967c0 2.08-.25 3.62-.25 3.62s1.81-.25 3.62-.25h17.071c13.613 0 30.275 0 30.275-18.851 0-13.96-11.928-18.848-27.983-18.848h-19.365c-1.826 0-3.576-.273-3.576-.273s.208 1.858.208 3.635m0 61.443v26.77c0 2.068-.299 3.674-.299 3.674s1.865-.3 3.683-.3h20.182c15.361 0 24.375-2.382 24.375-16.344 0-9.074-5.596-17.167-23.75-17.167h-20.807c-1.818 0-3.617-.234-3.617-.234s.233 1.748.233 3.6m476.563 46.79c0 4.18-.245 5.65 2.716 7.485 2.9 1.8 5.869 2.095 10.64 2.908 0 0 .05.01.09.02.479.117.393 1.914-.088 1.914l-76.926.002c-.48 0-.574-1.797-.095-1.914.039-.01.09-.019.09-.019 4.858-.61 7.109-1.109 10.01-2.908 2.96-1.836 2.715-3.313 2.715-7.494v-77.482c0-17.666-10.118-31.24-30.21-31.24-20.093 0-30.215 13.574-30.215 31.24l.005 77.464c0 4.182-.25 5.671 2.715 7.51 2.897 1.796 5.317 2.245 10.009 2.905 0 0 .052.01.09.02.479.116.386 1.916-.095 1.916l-72.592-.003c-.54 0-.432-1.806.019-1.909.039-.007.088-.019.088-.019 2.654-.162 4.48-.313 6.11-1.705 2.423-2.058 2.809-4.51 2.809-8.69l-.003-76.166c0-36.718 20.088-67.895 81.06-67.895 60.966 0 81.059 31.177 81.059 67.895v76.165zM389.644 68.587c.48 0 .577 1.8.1 1.916-.04.01-.09.02-.09.02-4.772.813-7.743 1.108-10.64 2.908-2.964 1.836-2.718 3.322-2.718 7.505v48.925l53.195 78.993c2.918 4.333 4.778 6.593 7.171 8.607.408.345 1.387.992 1.987 1.368 2.188 1.103 3.032 1.357 5.742 1.435 0 0 .05.015.088.02.484.063.635 1.906.078 1.906l-71.745.005c-.587 0-.467-1.877.033-1.926.04-.002.088-.022.088-.022 3.481 0 7.767-.027 7.071-5.022-.398-4.85-21.079-34.753-28.44-46.108-1.056-1.628-1.878-3.308-2.233-5.349-.269 2.006-1.53 4.06-2.38 5.327-10.268 15.285-27.828 40.066-28.332 46.14-.428 5.183 3.59 5.032 7.071 5.032 0 0 .05.017.088.022.5.048.682 1.904.095 1.904l-75.344-.003c-.447 0-.398-1.73.05-1.9a.314.314 0 0 1 .088-.02c3.218-.328 4.972-.104 8.741-1.939.441-.215 1.495-.916 1.905-1.26 2.39-2.014 3.855-3.877 6.773-8.21l53.125-78.663.003-49.257c0-4.183.248-5.672-2.714-7.51-2.899-1.797-5.869-2.093-10.64-2.906 0 0-.05-.009-.09-.019-.478-.117-.388-1.917.092-1.917l81.782-.002z" fill="#fff"/></g></svg>